<?xml version="1.0" encoding="utf-8"?>
<!-- Generator: Adobe Illustrator 25.2.1, SVG Export Plug-In . SVG Version: 6.00 Build 0)  -->
<svg version="1.1" id="Capa_1" xmlns="http://www.w3.org/2000/svg" xmlns:xlink="http://www.w3.org/1999/xlink" x="0px" y="0px"
	 viewBox="0 0 150 150" style="enable-background:new 0 0 150 150;" xml:space="preserve">
<style type="text/css">
	.st0{fill-rule:evenodd;clip-rule:evenodd;fill:#323232;}
	.st1{fill:#FFFFFF;}
</style>
<g>
	<path class="st0" d="M34.24,3h80.63c17.4,0,31.69,14.28,31.69,31.69v80.56c0,17.47-14.28,31.76-31.69,31.76H34.24
		c-17.4,0-31.69-14.28-31.69-31.76V34.69C2.56,17.28,16.84,3,34.24,3L34.24,3z"/>
	<g>
		<g>
			<path class="st1" d="M95.67,124.01H53.45c-15.38,0-27.9-12.51-27.9-27.9V53.89c0-15.38,12.52-27.9,27.9-27.9h42.22
				c15.38,0,27.9,12.51,27.9,27.9v42.23C123.57,111.5,111.05,124.01,95.67,124.01z M53.45,34.39c-10.75,0-19.5,8.74-19.5,19.5v42.23
				c0,10.75,8.75,19.5,19.5,19.5h42.22c10.75,0,19.5-8.75,19.5-19.5V53.89c0-10.75-8.75-19.5-19.5-19.5H53.45z"/>
		</g>
		<g>
			<path class="st1" d="M74.56,100.1c-13.84,0-25.1-11.26-25.1-25.1c0-13.84,11.26-25.1,25.1-25.1c13.84,0,25.1,11.26,25.1,25.1
				C99.66,88.84,88.4,100.1,74.56,100.1z M74.56,58.31c-9.21,0-16.7,7.49-16.7,16.69s7.49,16.7,16.7,16.7
				c9.21,0,16.7-7.49,16.7-16.7S83.76,58.31,74.56,58.31z"/>
		</g>
		<g>
			<path class="st1" d="M106.76,48.47c0,3.33-2.7,6.03-6.03,6.03c-3.33,0-6.03-2.7-6.03-6.03c0-3.33,2.7-6.03,6.03-6.03
				C104.06,42.43,106.76,45.14,106.76,48.47z"/>
		</g>
	</g>
</g>
</svg>
