<?xml version="1.0" encoding="utf-8"?>
<!-- Generator: Adobe Illustrator 25.2.1, SVG Export Plug-In . SVG Version: 6.00 Build 0)  -->
<svg version="1.1" id="Capa_1" xmlns="http://www.w3.org/2000/svg" xmlns:xlink="http://www.w3.org/1999/xlink" x="0px" y="0px"
	 viewBox="0 0 150 150" style="enable-background:new 0 0 150 150;" xml:space="preserve">
<style type="text/css">
	.st0{fill-rule:evenodd;clip-rule:evenodd;fill:#323232;}
	.st1{fill:#FFFFFF;}
	.st2{fill-rule:evenodd;clip-rule:evenodd;fill:#FEFEFE;}
</style>
<g>
	<path class="st0" d="M34.24,3h80.63c17.4,0,31.69,14.28,31.69,31.69v80.56c0,17.47-14.28,31.76-31.69,31.76H34.24
		c-17.4,0-31.69-14.28-31.69-31.76V34.69C2.56,17.28,16.84,3,34.24,3L34.24,3z"/>
	<g>
		<g>
			<path class="st1" d="M95.67,124.01H53.45c-15.38,0-27.9-12.51-27.9-27.9V53.89c0-15.38,12.52-27.9,27.9-27.9h42.22
				c15.38,0,27.9,12.51,27.9,27.9v42.23C123.57,111.5,111.05,124.01,95.67,124.01z M53.45,34.39c-10.75,0-19.5,8.74-19.5,19.5v42.23
				c0,10.75,8.75,19.5,19.5,19.5h42.22c10.75,0,19.5-8.75,19.5-19.5V53.89c0-10.75-8.75-19.5-19.5-19.5H53.45z"/>
		</g>
		<g>
			<path class="st1" d="M74.56,100.1c-13.84,0-25.1-11.26-25.1-25.1c0-13.84,11.26-25.1,25.1-25.1c13.84,0,25.1,11.26,25.1,25.1
				C99.66,88.84,88.4,100.1,74.56,100.1z M74.56,58.31c-9.21,0-16.7,7.49-16.7,16.69s7.49,16.7,16.7,16.7
				c9.21,0,16.7-7.49,16.7-16.7S83.76,58.31,74.56,58.31z"/>
		</g>
		<g>
			<path class="st1" d="M106.76,48.47c0,3.33-2.7,6.03-6.03,6.03c-3.33,0-6.03-2.7-6.03-6.03c0-3.33,2.7-6.03,6.03-6.03
				C104.06,42.43,106.76,45.14,106.76,48.47z"/>
		</g>
	</g>
</g>
<g>
	<path class="st0" d="M33.51,1.26h82.65c17.85,0,32.51,14.66,32.51,32.51v82.65c0,17.93-14.66,32.58-32.51,32.58H33.51
		C15.58,149,1,134.35,1,116.42V33.77C1,15.92,15.58,1.26,33.51,1.26L33.51,1.26z"/>
	<path class="st2" d="M81.94,58.4v-7.14c0-3.42,2.31-4.24,3.94-4.24c1.56,0,9.97,0,9.97,0V31.76H82.09
		c-15.25,0-18.67,11.31-18.67,18.6v8.03h-8.85v10.71v7.07h8.93c0,20.16,0,44.41,0,44.41h17.78c0,0,0-24.55,0-44.41h13.17l0.59-6.99
		l1.04-10.79H81.94z"/>
</g>
<g>
	<path class="st0" d="M32.73,1.26h83.21c18.05,0,32.73,14.76,32.73,32.73v83.21c0,18.05-14.68,32.8-32.73,32.8H32.73
		C14.68,150,0,135.25,0,117.2V33.99C0,16.01,14.68,1.26,32.73,1.26L32.73,1.26z"/>
	<path class="st2" d="M75.12,108.96c-7.49,0-14.46-2.25-20.3-6.07l-14.15,4.49l4.57-13.63c-4.42-5.99-7.04-13.48-7.04-21.5
		c0-1.2,0.07-2.32,0.22-3.52c1.8-18.57,17.6-33.1,36.7-33.1c19.4,0,35.35,14.9,36.85,33.78c0.08,0.97,0.08,1.95,0.08,2.85
		C112.04,92.48,95.49,108.96,75.12,108.96L75.12,108.96z M95.27,81.1c-1.12-0.52-6.36-3.14-7.34-3.52c-1.05-0.3-1.72-0.52-2.47,0.6
		c-0.68,1.05-2.77,3.45-3.37,4.12c-0.68,0.75-1.27,0.83-2.32,0.3c-1.13-0.52-4.57-1.65-8.69-5.32c-3.22-2.85-5.39-6.29-5.99-7.34
		c-0.6-1.12-0.08-1.65,0.45-2.25c0.52-0.45,1.12-1.2,1.65-1.87c0.15-0.15,0.3-0.3,0.37-0.45c0.3-0.45,0.45-0.82,0.68-1.27
		c0.37-0.75,0.23-1.35-0.07-1.87c-0.23-0.52-2.4-5.84-3.3-7.94c-0.9-2.17-1.8-1.8-2.4-1.8c-0.67,0-1.35-0.08-2.09-0.08
		c-0.75,0-1.87,0.23-2.85,1.35c-1.05,1.05-3.82,3.59-3.82,8.91c0,1.2,0.23,2.47,0.6,3.6c1.05,3.82,3.44,6.89,3.82,7.41
		c0.52,0.75,7.41,11.83,18.35,16.1c11.01,4.27,11.01,2.85,12.96,2.7c1.95-0.15,6.37-2.55,7.27-5.09c0.9-2.47,0.9-4.64,0.6-5.09
		C97.07,81.92,96.32,81.62,95.27,81.1L95.27,81.1z M119.01,71.21c-0.6-23.59-20-42.47-43.89-42.47c-23.59,0-42.84,18.42-43.81,41.64
		c-0.08,0.6-0.08,1.27-0.08,1.87c0,8.24,2.32,15.95,6.29,22.54l-7.94,23.37l24.34-7.72c6.29,3.45,13.56,5.39,21.2,5.39
		c24.27,0,43.96-19.47,43.96-43.59C119.08,71.88,119.01,71.58,119.01,71.21L119.01,71.21z"/>
</g>
</svg>
